%TF.GenerationSoftware,KiCad,Pcbnew,8.0.3*%
%TF.CreationDate,2024-07-01T08:39:21+09:00*%
%TF.ProjectId,Unit_LTP305G,556e6974-5f4c-4545-9033-3035472e6b69,rev?*%
%TF.SameCoordinates,Original*%
%TF.FileFunction,Soldermask,Top*%
%TF.FilePolarity,Negative*%
%FSLAX46Y46*%
G04 Gerber Fmt 4.6, Leading zero omitted, Abs format (unit mm)*
G04 Created by KiCad (PCBNEW 8.0.3) date 2024-07-01 08:39:21*
%MOMM*%
%LPD*%
G01*
G04 APERTURE LIST*
G04 Aperture macros list*
%AMRoundRect*
0 Rectangle with rounded corners*
0 $1 Rounding radius*
0 $2 $3 $4 $5 $6 $7 $8 $9 X,Y pos of 4 corners*
0 Add a 4 corners polygon primitive as box body*
4,1,4,$2,$3,$4,$5,$6,$7,$8,$9,$2,$3,0*
0 Add four circle primitives for the rounded corners*
1,1,$1+$1,$2,$3*
1,1,$1+$1,$4,$5*
1,1,$1+$1,$6,$7*
1,1,$1+$1,$8,$9*
0 Add four rect primitives between the rounded corners*
20,1,$1+$1,$2,$3,$4,$5,0*
20,1,$1+$1,$4,$5,$6,$7,0*
20,1,$1+$1,$6,$7,$8,$9,0*
20,1,$1+$1,$8,$9,$2,$3,0*%
G04 Aperture macros list end*
%ADD10RoundRect,0.250000X-0.350000X-0.450000X0.350000X-0.450000X0.350000X0.450000X-0.350000X0.450000X0*%
%ADD11C,1.600000*%
%ADD12RoundRect,0.250000X0.350000X0.450000X-0.350000X0.450000X-0.350000X-0.450000X0.350000X-0.450000X0*%
%ADD13C,5.500000*%
%ADD14C,1.524000*%
%ADD15RoundRect,0.500000X-0.008000X0.750000X-0.008000X-0.750000X0.008000X-0.750000X0.008000X0.750000X0*%
%ADD16RoundRect,0.500000X0.008000X-0.750000X0.008000X0.750000X-0.008000X0.750000X-0.008000X-0.750000X0*%
G04 APERTURE END LIST*
D10*
%TO.C,R1*%
X139954000Y-74500000D03*
X141954000Y-74500000D03*
%TD*%
D11*
%TO.C,U2*%
X132842000Y-71882000D03*
X135382000Y-71882000D03*
X137922000Y-71882000D03*
X140462000Y-71882000D03*
X143002000Y-71882000D03*
X148082000Y-71882000D03*
X148082000Y-64262000D03*
X145542000Y-64262000D03*
X143002000Y-64262000D03*
X140462000Y-64262000D03*
X137922000Y-64262000D03*
X135382000Y-64262000D03*
X132842000Y-64262000D03*
%TD*%
D12*
%TO.C,R4*%
X135858000Y-61214000D03*
X133858000Y-61214000D03*
%TD*%
D10*
%TO.C,R2*%
X133858000Y-74676000D03*
X135858000Y-74676000D03*
%TD*%
D13*
%TO.C,H1*%
X156210000Y-67900000D03*
%TD*%
D14*
%TO.C,J1*%
X160655000Y-70897000D03*
X160655000Y-68897000D03*
X160655000Y-66897000D03*
X160655000Y-64897000D03*
%TD*%
D10*
%TO.C,R3*%
X146200000Y-61200000D03*
X148200000Y-61200000D03*
%TD*%
D12*
%TO.C,R5*%
X141986000Y-61214000D03*
X139986000Y-61214000D03*
%TD*%
D15*
%TO.C,U1*%
X129362200Y-59599600D03*
X128092200Y-59599600D03*
X126822200Y-59599600D03*
X125552200Y-59599600D03*
X124282200Y-59599600D03*
X123012200Y-59599600D03*
X121742200Y-59599600D03*
X120472200Y-59599600D03*
X119202200Y-59599600D03*
X117932200Y-59599600D03*
X116662200Y-59599600D03*
X115392200Y-59599600D03*
X114122200Y-59599600D03*
X112852200Y-59599600D03*
X111582200Y-59599600D03*
X110312200Y-59599600D03*
X109042200Y-59599600D03*
D16*
X109042200Y-76239600D03*
X110312200Y-76239600D03*
X111582200Y-76239600D03*
X112852200Y-76239600D03*
X114122200Y-76239600D03*
X115392200Y-76239600D03*
X116662200Y-76239600D03*
X117932200Y-76239600D03*
X119202200Y-76239600D03*
X120472200Y-76239600D03*
X121742200Y-76239600D03*
%TD*%
D10*
%TO.C,R6*%
X146304000Y-74500000D03*
X148304000Y-74500000D03*
%TD*%
M02*
