%TF.GenerationSoftware,KiCad,Pcbnew,8.0.3*%
%TF.CreationDate,2024-07-01T08:39:21+09:00*%
%TF.ProjectId,Unit_LTP305G,556e6974-5f4c-4545-9033-3035472e6b69,rev?*%
%TF.SameCoordinates,Original*%
%TF.FileFunction,Legend,Top*%
%TF.FilePolarity,Positive*%
%FSLAX46Y46*%
G04 Gerber Fmt 4.6, Leading zero omitted, Abs format (unit mm)*
G04 Created by KiCad (PCBNEW 8.0.3) date 2024-07-01 08:39:21*
%MOMM*%
%LPD*%
G01*
G04 APERTURE LIST*
G04 Aperture macros list*
%AMRoundRect*
0 Rectangle with rounded corners*
0 $1 Rounding radius*
0 $2 $3 $4 $5 $6 $7 $8 $9 X,Y pos of 4 corners*
0 Add a 4 corners polygon primitive as box body*
4,1,4,$2,$3,$4,$5,$6,$7,$8,$9,$2,$3,0*
0 Add four circle primitives for the rounded corners*
1,1,$1+$1,$2,$3*
1,1,$1+$1,$4,$5*
1,1,$1+$1,$6,$7*
1,1,$1+$1,$8,$9*
0 Add four rect primitives between the rounded corners*
20,1,$1+$1,$2,$3,$4,$5,0*
20,1,$1+$1,$4,$5,$6,$7,0*
20,1,$1+$1,$6,$7,$8,$9,0*
20,1,$1+$1,$8,$9,$2,$3,0*%
G04 Aperture macros list end*
%ADD10C,0.150000*%
%ADD11C,0.120000*%
%ADD12RoundRect,0.250000X-0.350000X-0.450000X0.350000X-0.450000X0.350000X0.450000X-0.350000X0.450000X0*%
%ADD13C,1.600000*%
%ADD14RoundRect,0.250000X0.350000X0.450000X-0.350000X0.450000X-0.350000X-0.450000X0.350000X-0.450000X0*%
%ADD15C,5.500000*%
%ADD16C,1.524000*%
%ADD17RoundRect,0.500000X-0.008000X0.750000X-0.008000X-0.750000X0.008000X-0.750000X0.008000X0.750000X0*%
%ADD18RoundRect,0.500000X0.008000X-0.750000X0.008000X0.750000X-0.008000X0.750000X-0.008000X-0.750000X0*%
G04 APERTURE END LIST*
D10*
X140787333Y-76654819D02*
X140454000Y-76178628D01*
X140215905Y-76654819D02*
X140215905Y-75654819D01*
X140215905Y-75654819D02*
X140596857Y-75654819D01*
X140596857Y-75654819D02*
X140692095Y-75702438D01*
X140692095Y-75702438D02*
X140739714Y-75750057D01*
X140739714Y-75750057D02*
X140787333Y-75845295D01*
X140787333Y-75845295D02*
X140787333Y-75988152D01*
X140787333Y-75988152D02*
X140739714Y-76083390D01*
X140739714Y-76083390D02*
X140692095Y-76131009D01*
X140692095Y-76131009D02*
X140596857Y-76178628D01*
X140596857Y-76178628D02*
X140215905Y-76178628D01*
X141739714Y-76654819D02*
X141168286Y-76654819D01*
X141454000Y-76654819D02*
X141454000Y-75654819D01*
X141454000Y-75654819D02*
X141358762Y-75797676D01*
X141358762Y-75797676D02*
X141263524Y-75892914D01*
X141263524Y-75892914D02*
X141168286Y-75940533D01*
X149576819Y-68833904D02*
X150386342Y-68833904D01*
X150386342Y-68833904D02*
X150481580Y-68786285D01*
X150481580Y-68786285D02*
X150529200Y-68738666D01*
X150529200Y-68738666D02*
X150576819Y-68643428D01*
X150576819Y-68643428D02*
X150576819Y-68452952D01*
X150576819Y-68452952D02*
X150529200Y-68357714D01*
X150529200Y-68357714D02*
X150481580Y-68310095D01*
X150481580Y-68310095D02*
X150386342Y-68262476D01*
X150386342Y-68262476D02*
X149576819Y-68262476D01*
X149672057Y-67833904D02*
X149624438Y-67786285D01*
X149624438Y-67786285D02*
X149576819Y-67691047D01*
X149576819Y-67691047D02*
X149576819Y-67452952D01*
X149576819Y-67452952D02*
X149624438Y-67357714D01*
X149624438Y-67357714D02*
X149672057Y-67310095D01*
X149672057Y-67310095D02*
X149767295Y-67262476D01*
X149767295Y-67262476D02*
X149862533Y-67262476D01*
X149862533Y-67262476D02*
X150005390Y-67310095D01*
X150005390Y-67310095D02*
X150576819Y-67881523D01*
X150576819Y-67881523D02*
X150576819Y-67262476D01*
X134707333Y-59890819D02*
X134374000Y-59414628D01*
X134135905Y-59890819D02*
X134135905Y-58890819D01*
X134135905Y-58890819D02*
X134516857Y-58890819D01*
X134516857Y-58890819D02*
X134612095Y-58938438D01*
X134612095Y-58938438D02*
X134659714Y-58986057D01*
X134659714Y-58986057D02*
X134707333Y-59081295D01*
X134707333Y-59081295D02*
X134707333Y-59224152D01*
X134707333Y-59224152D02*
X134659714Y-59319390D01*
X134659714Y-59319390D02*
X134612095Y-59367009D01*
X134612095Y-59367009D02*
X134516857Y-59414628D01*
X134516857Y-59414628D02*
X134135905Y-59414628D01*
X135564476Y-59224152D02*
X135564476Y-59890819D01*
X135326381Y-58843200D02*
X135088286Y-59557485D01*
X135088286Y-59557485D02*
X135707333Y-59557485D01*
X134633333Y-76830819D02*
X134300000Y-76354628D01*
X134061905Y-76830819D02*
X134061905Y-75830819D01*
X134061905Y-75830819D02*
X134442857Y-75830819D01*
X134442857Y-75830819D02*
X134538095Y-75878438D01*
X134538095Y-75878438D02*
X134585714Y-75926057D01*
X134585714Y-75926057D02*
X134633333Y-76021295D01*
X134633333Y-76021295D02*
X134633333Y-76164152D01*
X134633333Y-76164152D02*
X134585714Y-76259390D01*
X134585714Y-76259390D02*
X134538095Y-76307009D01*
X134538095Y-76307009D02*
X134442857Y-76354628D01*
X134442857Y-76354628D02*
X134061905Y-76354628D01*
X135014286Y-75926057D02*
X135061905Y-75878438D01*
X135061905Y-75878438D02*
X135157143Y-75830819D01*
X135157143Y-75830819D02*
X135395238Y-75830819D01*
X135395238Y-75830819D02*
X135490476Y-75878438D01*
X135490476Y-75878438D02*
X135538095Y-75926057D01*
X135538095Y-75926057D02*
X135585714Y-76021295D01*
X135585714Y-76021295D02*
X135585714Y-76116533D01*
X135585714Y-76116533D02*
X135538095Y-76259390D01*
X135538095Y-76259390D02*
X134966667Y-76830819D01*
X134966667Y-76830819D02*
X135585714Y-76830819D01*
X151130095Y-73606819D02*
X151130095Y-72606819D01*
X151130095Y-73083009D02*
X151701523Y-73083009D01*
X151701523Y-73606819D02*
X151701523Y-72606819D01*
X152701523Y-73606819D02*
X152130095Y-73606819D01*
X152415809Y-73606819D02*
X152415809Y-72606819D01*
X152415809Y-72606819D02*
X152320571Y-72749676D01*
X152320571Y-72749676D02*
X152225333Y-72844914D01*
X152225333Y-72844914D02*
X152130095Y-72892533D01*
X164109819Y-68230333D02*
X164824104Y-68230333D01*
X164824104Y-68230333D02*
X164966961Y-68277952D01*
X164966961Y-68277952D02*
X165062200Y-68373190D01*
X165062200Y-68373190D02*
X165109819Y-68516047D01*
X165109819Y-68516047D02*
X165109819Y-68611285D01*
X165109819Y-67230333D02*
X165109819Y-67801761D01*
X165109819Y-67516047D02*
X164109819Y-67516047D01*
X164109819Y-67516047D02*
X164252676Y-67611285D01*
X164252676Y-67611285D02*
X164347914Y-67706523D01*
X164347914Y-67706523D02*
X164395533Y-67801761D01*
X146899333Y-59890819D02*
X146566000Y-59414628D01*
X146327905Y-59890819D02*
X146327905Y-58890819D01*
X146327905Y-58890819D02*
X146708857Y-58890819D01*
X146708857Y-58890819D02*
X146804095Y-58938438D01*
X146804095Y-58938438D02*
X146851714Y-58986057D01*
X146851714Y-58986057D02*
X146899333Y-59081295D01*
X146899333Y-59081295D02*
X146899333Y-59224152D01*
X146899333Y-59224152D02*
X146851714Y-59319390D01*
X146851714Y-59319390D02*
X146804095Y-59367009D01*
X146804095Y-59367009D02*
X146708857Y-59414628D01*
X146708857Y-59414628D02*
X146327905Y-59414628D01*
X147232667Y-58890819D02*
X147851714Y-58890819D01*
X147851714Y-58890819D02*
X147518381Y-59271771D01*
X147518381Y-59271771D02*
X147661238Y-59271771D01*
X147661238Y-59271771D02*
X147756476Y-59319390D01*
X147756476Y-59319390D02*
X147804095Y-59367009D01*
X147804095Y-59367009D02*
X147851714Y-59462247D01*
X147851714Y-59462247D02*
X147851714Y-59700342D01*
X147851714Y-59700342D02*
X147804095Y-59795580D01*
X147804095Y-59795580D02*
X147756476Y-59843200D01*
X147756476Y-59843200D02*
X147661238Y-59890819D01*
X147661238Y-59890819D02*
X147375524Y-59890819D01*
X147375524Y-59890819D02*
X147280286Y-59843200D01*
X147280286Y-59843200D02*
X147232667Y-59795580D01*
X140803333Y-59890819D02*
X140470000Y-59414628D01*
X140231905Y-59890819D02*
X140231905Y-58890819D01*
X140231905Y-58890819D02*
X140612857Y-58890819D01*
X140612857Y-58890819D02*
X140708095Y-58938438D01*
X140708095Y-58938438D02*
X140755714Y-58986057D01*
X140755714Y-58986057D02*
X140803333Y-59081295D01*
X140803333Y-59081295D02*
X140803333Y-59224152D01*
X140803333Y-59224152D02*
X140755714Y-59319390D01*
X140755714Y-59319390D02*
X140708095Y-59367009D01*
X140708095Y-59367009D02*
X140612857Y-59414628D01*
X140612857Y-59414628D02*
X140231905Y-59414628D01*
X141708095Y-58890819D02*
X141231905Y-58890819D01*
X141231905Y-58890819D02*
X141184286Y-59367009D01*
X141184286Y-59367009D02*
X141231905Y-59319390D01*
X141231905Y-59319390D02*
X141327143Y-59271771D01*
X141327143Y-59271771D02*
X141565238Y-59271771D01*
X141565238Y-59271771D02*
X141660476Y-59319390D01*
X141660476Y-59319390D02*
X141708095Y-59367009D01*
X141708095Y-59367009D02*
X141755714Y-59462247D01*
X141755714Y-59462247D02*
X141755714Y-59700342D01*
X141755714Y-59700342D02*
X141708095Y-59795580D01*
X141708095Y-59795580D02*
X141660476Y-59843200D01*
X141660476Y-59843200D02*
X141565238Y-59890819D01*
X141565238Y-59890819D02*
X141327143Y-59890819D01*
X141327143Y-59890819D02*
X141231905Y-59843200D01*
X141231905Y-59843200D02*
X141184286Y-59795580D01*
X117207380Y-67157695D02*
X116397857Y-67157695D01*
X116397857Y-67157695D02*
X116302619Y-67205314D01*
X116302619Y-67205314D02*
X116255000Y-67252933D01*
X116255000Y-67252933D02*
X116207380Y-67348171D01*
X116207380Y-67348171D02*
X116207380Y-67538647D01*
X116207380Y-67538647D02*
X116255000Y-67633885D01*
X116255000Y-67633885D02*
X116302619Y-67681504D01*
X116302619Y-67681504D02*
X116397857Y-67729123D01*
X116397857Y-67729123D02*
X117207380Y-67729123D01*
X116207380Y-68729123D02*
X116207380Y-68157695D01*
X116207380Y-68443409D02*
X117207380Y-68443409D01*
X117207380Y-68443409D02*
X117064523Y-68348171D01*
X117064523Y-68348171D02*
X116969285Y-68252933D01*
X116969285Y-68252933D02*
X116921666Y-68157695D01*
X147065333Y-76654819D02*
X146732000Y-76178628D01*
X146493905Y-76654819D02*
X146493905Y-75654819D01*
X146493905Y-75654819D02*
X146874857Y-75654819D01*
X146874857Y-75654819D02*
X146970095Y-75702438D01*
X146970095Y-75702438D02*
X147017714Y-75750057D01*
X147017714Y-75750057D02*
X147065333Y-75845295D01*
X147065333Y-75845295D02*
X147065333Y-75988152D01*
X147065333Y-75988152D02*
X147017714Y-76083390D01*
X147017714Y-76083390D02*
X146970095Y-76131009D01*
X146970095Y-76131009D02*
X146874857Y-76178628D01*
X146874857Y-76178628D02*
X146493905Y-76178628D01*
X147922476Y-75654819D02*
X147732000Y-75654819D01*
X147732000Y-75654819D02*
X147636762Y-75702438D01*
X147636762Y-75702438D02*
X147589143Y-75750057D01*
X147589143Y-75750057D02*
X147493905Y-75892914D01*
X147493905Y-75892914D02*
X147446286Y-76083390D01*
X147446286Y-76083390D02*
X147446286Y-76464342D01*
X147446286Y-76464342D02*
X147493905Y-76559580D01*
X147493905Y-76559580D02*
X147541524Y-76607200D01*
X147541524Y-76607200D02*
X147636762Y-76654819D01*
X147636762Y-76654819D02*
X147827238Y-76654819D01*
X147827238Y-76654819D02*
X147922476Y-76607200D01*
X147922476Y-76607200D02*
X147970095Y-76559580D01*
X147970095Y-76559580D02*
X148017714Y-76464342D01*
X148017714Y-76464342D02*
X148017714Y-76226247D01*
X148017714Y-76226247D02*
X147970095Y-76131009D01*
X147970095Y-76131009D02*
X147922476Y-76083390D01*
X147922476Y-76083390D02*
X147827238Y-76035771D01*
X147827238Y-76035771D02*
X147636762Y-76035771D01*
X147636762Y-76035771D02*
X147541524Y-76083390D01*
X147541524Y-76083390D02*
X147493905Y-76131009D01*
X147493905Y-76131009D02*
X147446286Y-76226247D01*
D11*
%TO.C,R1*%
X140726936Y-73765000D02*
X141181064Y-73765000D01*
X140726936Y-75235000D02*
X141181064Y-75235000D01*
%TO.C,U2*%
X131572000Y-72517000D02*
X131572000Y-63627000D01*
X149352000Y-72517000D02*
X149352000Y-63627000D01*
%TO.C,R4*%
X135085064Y-60479000D02*
X134630936Y-60479000D01*
X135085064Y-61949000D02*
X134630936Y-61949000D01*
%TO.C,R2*%
X134630936Y-73941000D02*
X135085064Y-73941000D01*
X134630936Y-75411000D02*
X135085064Y-75411000D01*
%TO.C,J1*%
X160655000Y-62897000D02*
X160655000Y-63897000D01*
X160655000Y-62897000D02*
X165655000Y-62897000D01*
X160655000Y-63897000D02*
X160655000Y-62897000D01*
X160655000Y-71897000D02*
X160655000Y-72897000D01*
X160655000Y-72897000D02*
X165655000Y-72897000D01*
%TO.C,R3*%
X146972936Y-60465000D02*
X147427064Y-60465000D01*
X146972936Y-61935000D02*
X147427064Y-61935000D01*
%TO.C,R5*%
X141213064Y-60479000D02*
X140758936Y-60479000D01*
X141213064Y-61949000D02*
X140758936Y-61949000D01*
%TO.C,U1*%
X107772200Y-57759600D02*
X107772200Y-63474600D01*
X107772200Y-72364600D02*
X107772200Y-78079600D01*
X107772200Y-78079600D02*
X130632200Y-78079600D01*
X124282200Y-61569600D02*
X124282200Y-78079600D01*
X125552200Y-66014600D02*
X125552200Y-76174600D01*
X125552200Y-76174600D02*
X126822200Y-76174600D01*
X126187200Y-67284600D02*
X130632200Y-67284600D01*
X126187200Y-74904600D02*
X126187200Y-67284600D01*
X126822200Y-74904600D02*
X126187200Y-74904600D01*
X126822200Y-76174600D02*
X126822200Y-74904600D01*
X130632200Y-57759600D02*
X107772200Y-57759600D01*
X130632200Y-61569600D02*
X124282200Y-61569600D01*
X130632200Y-66014600D02*
X125552200Y-66014600D01*
X130632200Y-78079600D02*
X130632200Y-57759600D01*
X112852200Y-63474600D02*
X107777200Y-63474600D01*
X107777200Y-72364600D01*
X112852200Y-72364600D01*
X112852200Y-63474600D01*
%TO.C,R6*%
X147076936Y-73765000D02*
X147531064Y-73765000D01*
X147076936Y-75235000D02*
X147531064Y-75235000D01*
%TD*%
%LPC*%
D12*
%TO.C,R1*%
X139954000Y-74500000D03*
X141954000Y-74500000D03*
%TD*%
D13*
%TO.C,U2*%
X132842000Y-71882000D03*
X135382000Y-71882000D03*
X137922000Y-71882000D03*
X140462000Y-71882000D03*
X143002000Y-71882000D03*
X148082000Y-71882000D03*
X148082000Y-64262000D03*
X145542000Y-64262000D03*
X143002000Y-64262000D03*
X140462000Y-64262000D03*
X137922000Y-64262000D03*
X135382000Y-64262000D03*
X132842000Y-64262000D03*
%TD*%
D14*
%TO.C,R4*%
X135858000Y-61214000D03*
X133858000Y-61214000D03*
%TD*%
D12*
%TO.C,R2*%
X133858000Y-74676000D03*
X135858000Y-74676000D03*
%TD*%
D15*
%TO.C,H1*%
X156210000Y-67900000D03*
%TD*%
D16*
%TO.C,J1*%
X160655000Y-70897000D03*
X160655000Y-68897000D03*
X160655000Y-66897000D03*
X160655000Y-64897000D03*
%TD*%
D12*
%TO.C,R3*%
X146200000Y-61200000D03*
X148200000Y-61200000D03*
%TD*%
D14*
%TO.C,R5*%
X141986000Y-61214000D03*
X139986000Y-61214000D03*
%TD*%
D17*
%TO.C,U1*%
X129362200Y-59599600D03*
X128092200Y-59599600D03*
X126822200Y-59599600D03*
X125552200Y-59599600D03*
X124282200Y-59599600D03*
X123012200Y-59599600D03*
X121742200Y-59599600D03*
X120472200Y-59599600D03*
X119202200Y-59599600D03*
X117932200Y-59599600D03*
X116662200Y-59599600D03*
X115392200Y-59599600D03*
X114122200Y-59599600D03*
X112852200Y-59599600D03*
X111582200Y-59599600D03*
X110312200Y-59599600D03*
X109042200Y-59599600D03*
D18*
X109042200Y-76239600D03*
X110312200Y-76239600D03*
X111582200Y-76239600D03*
X112852200Y-76239600D03*
X114122200Y-76239600D03*
X115392200Y-76239600D03*
X116662200Y-76239600D03*
X117932200Y-76239600D03*
X119202200Y-76239600D03*
X120472200Y-76239600D03*
X121742200Y-76239600D03*
%TD*%
D12*
%TO.C,R6*%
X146304000Y-74500000D03*
X148304000Y-74500000D03*
%TD*%
%LPD*%
M02*
