M48
; DRILL file {KiCad 8.0.3} date 2024-07-01T08:39:21+0900
; FORMAT={-:-/ absolute / inch / decimal}
; #@! TF.CreationDate,2024-07-01T08:39:21+09:00
; #@! TF.GenerationSoftware,Kicad,Pcbnew,8.0.3
; #@! TF.FileFunction,Plated,1,2,PTH
FMAT,2
INCH
; #@! TA.AperFunction,Plated,PTH,ViaDrill
T1C0.0118
; #@! TA.AperFunction,Plated,PTH,ComponentDrill
T2C0.0300
; #@! TA.AperFunction,Plated,PTH,ComponentDrill
T3C0.0315
%
G90
G05
T1
X4.62Y-2.54
X4.7532Y-2.6732
X4.81Y-2.61
X5.44Y-2.4134
X5.68Y-2.4094
T2
X4.293Y-2.374
X4.293Y-2.974
X4.343Y-2.374
X4.343Y-2.974
X4.393Y-2.374
X4.393Y-2.974
X4.443Y-2.374
X4.443Y-2.974
X4.493Y-2.374
X4.493Y-2.974
X4.543Y-2.374
X4.543Y-2.974
X4.593Y-2.374
X4.593Y-2.974
X4.643Y-2.374
X4.643Y-2.974
X4.693Y-2.374
X4.693Y-2.974
X4.743Y-2.374
X4.743Y-2.974
X4.793Y-2.374
X4.793Y-2.974
X4.843Y-2.374
X4.893Y-2.374
X4.943Y-2.374
X4.993Y-2.374
X5.043Y-2.374
X5.093Y-2.374
X6.325Y-2.555
X6.325Y-2.6337
X6.325Y-2.7125
X6.325Y-2.7912
T3
X5.23Y-2.53
X5.23Y-2.83
X5.33Y-2.53
X5.33Y-2.83
X5.43Y-2.53
X5.43Y-2.83
X5.53Y-2.53
X5.53Y-2.83
X5.63Y-2.53
X5.63Y-2.83
X5.73Y-2.53
X5.83Y-2.53
X5.83Y-2.83
M30
