%TF.GenerationSoftware,KiCad,Pcbnew,8.0.3*%
%TF.CreationDate,2024-07-01T08:39:21+09:00*%
%TF.ProjectId,Unit_LTP305G,556e6974-5f4c-4545-9033-3035472e6b69,rev?*%
%TF.SameCoordinates,Original*%
%TF.FileFunction,Copper,L1,Top*%
%TF.FilePolarity,Positive*%
%FSLAX46Y46*%
G04 Gerber Fmt 4.6, Leading zero omitted, Abs format (unit mm)*
G04 Created by KiCad (PCBNEW 8.0.3) date 2024-07-01 08:39:21*
%MOMM*%
%LPD*%
G01*
G04 APERTURE LIST*
G04 Aperture macros list*
%AMRoundRect*
0 Rectangle with rounded corners*
0 $1 Rounding radius*
0 $2 $3 $4 $5 $6 $7 $8 $9 X,Y pos of 4 corners*
0 Add a 4 corners polygon primitive as box body*
4,1,4,$2,$3,$4,$5,$6,$7,$8,$9,$2,$3,0*
0 Add four circle primitives for the rounded corners*
1,1,$1+$1,$2,$3*
1,1,$1+$1,$4,$5*
1,1,$1+$1,$6,$7*
1,1,$1+$1,$8,$9*
0 Add four rect primitives between the rounded corners*
20,1,$1+$1,$2,$3,$4,$5,0*
20,1,$1+$1,$4,$5,$6,$7,0*
20,1,$1+$1,$6,$7,$8,$9,0*
20,1,$1+$1,$8,$9,$2,$3,0*%
G04 Aperture macros list end*
%TA.AperFunction,SMDPad,CuDef*%
%ADD10RoundRect,0.250000X-0.350000X-0.450000X0.350000X-0.450000X0.350000X0.450000X-0.350000X0.450000X0*%
%TD*%
%TA.AperFunction,ComponentPad*%
%ADD11C,1.600000*%
%TD*%
%TA.AperFunction,SMDPad,CuDef*%
%ADD12RoundRect,0.250000X0.350000X0.450000X-0.350000X0.450000X-0.350000X-0.450000X0.350000X-0.450000X0*%
%TD*%
%TA.AperFunction,ComponentPad*%
%ADD13C,1.524000*%
%TD*%
%TA.AperFunction,ComponentPad*%
%ADD14RoundRect,0.500000X-0.008000X0.750000X-0.008000X-0.750000X0.008000X-0.750000X0.008000X0.750000X0*%
%TD*%
%TA.AperFunction,ComponentPad*%
%ADD15RoundRect,0.500000X0.008000X-0.750000X0.008000X0.750000X-0.008000X0.750000X-0.008000X-0.750000X0*%
%TD*%
%TA.AperFunction,ViaPad*%
%ADD16C,0.600000*%
%TD*%
%TA.AperFunction,Conductor*%
%ADD17C,0.200000*%
%TD*%
%TA.AperFunction,Conductor*%
%ADD18C,0.500000*%
%TD*%
%TA.AperFunction,Conductor*%
%ADD19C,0.400000*%
%TD*%
G04 APERTURE END LIST*
D10*
%TO.P,R1,1*%
%TO.N,Net-(U2-AN1)*%
X139954000Y-74500000D03*
%TO.P,R1,2*%
%TO.N,Net-(U1-G41)*%
X141954000Y-74500000D03*
%TD*%
D11*
%TO.P,U2,1,AN2*%
%TO.N,Net-(U2-AN2)*%
X132842000Y-71882000D03*
%TO.P,U2,2,CA1*%
%TO.N,Net-(U1-G43)*%
X135382000Y-71882000D03*
%TO.P,U2,3,CA3*%
%TO.N,Net-(U1-G42)*%
X137922000Y-71882000D03*
%TO.P,U2,4,CA4*%
%TO.N,Net-(U1-G44)*%
X140462000Y-71882000D03*
%TO.P,U2,5,AN1*%
%TO.N,Net-(U2-AN1)*%
X143002000Y-71882000D03*
%TO.P,U2,7,ANDE*%
%TO.N,Net-(U2-ANDE)*%
X148082000Y-71882000D03*
%TO.P,U2,8,AN3*%
%TO.N,Net-(U2-AN3)*%
X148082000Y-64262000D03*
%TO.P,U2,9,CA7*%
%TO.N,Net-(U1-G6)*%
X145542000Y-64262000D03*
%TO.P,U2,10,CA6*%
%TO.N,Net-(U1-G5)*%
X143002000Y-64262000D03*
%TO.P,U2,11,CA5*%
%TO.N,Net-(U1-G4)*%
X140462000Y-64262000D03*
%TO.P,U2,12,CA2*%
%TO.N,Net-(U1-G3)*%
X137922000Y-64262000D03*
%TO.P,U2,13,AN5*%
%TO.N,Net-(U2-AN5)*%
X135382000Y-64262000D03*
%TO.P,U2,14,AN4*%
%TO.N,Net-(U2-AN4)*%
X132842000Y-64262000D03*
%TD*%
D12*
%TO.P,R4,1*%
%TO.N,Net-(U2-AN4)*%
X135858000Y-61214000D03*
%TO.P,R4,2*%
%TO.N,Net-(U1-G1)*%
X133858000Y-61214000D03*
%TD*%
D10*
%TO.P,R2,1*%
%TO.N,Net-(U1-G46)*%
X133858000Y-74676000D03*
%TO.P,R2,2*%
%TO.N,Net-(U2-AN2)*%
X135858000Y-74676000D03*
%TD*%
D13*
%TO.P,J1,1,Pin_1*%
%TO.N,GND*%
X160655000Y-70897000D03*
%TO.P,J1,2,Pin_2*%
%TO.N,+5V*%
X160655000Y-68897000D03*
%TO.P,J1,3,Pin_3*%
%TO.N,Net-(J1-Pin_3)*%
X160655000Y-66897000D03*
%TO.P,J1,4,Pin_4*%
%TO.N,Net-(J1-Pin_4)*%
X160655000Y-64897000D03*
%TD*%
D10*
%TO.P,R3,1*%
%TO.N,Net-(U1-G7)*%
X146200000Y-61200000D03*
%TO.P,R3,2*%
%TO.N,Net-(U2-AN3)*%
X148200000Y-61200000D03*
%TD*%
D12*
%TO.P,R5,1*%
%TO.N,Net-(U2-AN5)*%
X141986000Y-61214000D03*
%TO.P,R5,2*%
%TO.N,Net-(U1-G2)*%
X139986000Y-61214000D03*
%TD*%
D14*
%TO.P,U1,1,G1*%
%TO.N,Net-(U1-G1)*%
X129362200Y-59599600D03*
%TO.P,U1,2,G2*%
%TO.N,Net-(U1-G2)*%
X128092200Y-59599600D03*
%TO.P,U1,3,G3*%
%TO.N,Net-(U1-G3)*%
X126822200Y-59599600D03*
%TO.P,U1,4,G4*%
%TO.N,Net-(U1-G4)*%
X125552200Y-59599600D03*
%TO.P,U1,5,G5*%
%TO.N,Net-(U1-G5)*%
X124282200Y-59599600D03*
%TO.P,U1,6,G6*%
%TO.N,Net-(U1-G6)*%
X123012200Y-59599600D03*
%TO.P,U1,7,G7*%
%TO.N,Net-(U1-G7)*%
X121742200Y-59599600D03*
%TO.P,U1,8,G8*%
%TO.N,unconnected-(U1-G8-Pad8)*%
X120472200Y-59599600D03*
%TO.P,U1,9,G9*%
%TO.N,unconnected-(U1-G9-Pad9)*%
X119202200Y-59599600D03*
%TO.P,U1,10,G10*%
%TO.N,unconnected-(U1-G10-Pad10)*%
X117932200Y-59599600D03*
%TO.P,U1,11,GND*%
%TO.N,GND*%
X116662200Y-59599600D03*
%TO.P,U1,12,G11*%
%TO.N,unconnected-(U1-G11-Pad12)*%
X115392200Y-59599600D03*
%TO.P,U1,13,5V*%
%TO.N,+5V*%
X114122200Y-59599600D03*
%TO.P,U1,14,G12*%
%TO.N,unconnected-(U1-G12-Pad14)*%
X112852200Y-59599600D03*
%TO.P,U1,15,G13/SDA*%
%TO.N,Net-(J1-Pin_3)*%
X111582200Y-59599600D03*
%TO.P,U1,16,G14*%
%TO.N,unconnected-(U1-G14-Pad16)*%
X110312200Y-59599600D03*
%TO.P,U1,17,G15/SCL*%
%TO.N,Net-(J1-Pin_4)*%
X109042200Y-59599600D03*
D15*
%TO.P,U1,18,GND*%
%TO.N,unconnected-(U1-GND-Pad18)*%
X109042200Y-76239600D03*
%TO.P,U1,19,G39*%
%TO.N,unconnected-(U1-G39-Pad19)*%
X110312200Y-76239600D03*
%TO.P,U1,20,G0*%
%TO.N,unconnected-(U1-G0-Pad20)*%
X111582200Y-76239600D03*
%TO.P,U1,21,G40*%
%TO.N,Net-(U1-G40)*%
X112852200Y-76239600D03*
%TO.P,U1,22,EN*%
%TO.N,unconnected-(U1-EN-Pad22)*%
X114122200Y-76239600D03*
%TO.P,U1,23,G41*%
%TO.N,Net-(U1-G41)*%
X115392200Y-76239600D03*
%TO.P,U1,24,G44*%
%TO.N,Net-(U1-G44)*%
X116662200Y-76239600D03*
%TO.P,U1,25,G42*%
%TO.N,Net-(U1-G42)*%
X117932200Y-76239600D03*
%TO.P,U1,26,G43*%
%TO.N,Net-(U1-G43)*%
X119202200Y-76239600D03*
%TO.P,U1,27,G46*%
%TO.N,Net-(U1-G46)*%
X120472200Y-76239600D03*
%TO.P,U1,28,3V3*%
%TO.N,unconnected-(U1-3V3-Pad28)*%
X121742200Y-76239600D03*
%TD*%
D10*
%TO.P,R6,1*%
%TO.N,Net-(U1-G40)*%
X146304000Y-74500000D03*
%TO.P,R6,2*%
%TO.N,Net-(U2-ANDE)*%
X148304000Y-74500000D03*
%TD*%
D16*
%TO.N,GND*%
X122174000Y-66294000D03*
%TO.N,+5V*%
X117348000Y-64516000D03*
X120732000Y-67900000D03*
%TO.N,Net-(U1-G7)*%
X144272000Y-61200000D03*
%TO.N,Net-(U1-G2)*%
X138176000Y-61300000D03*
%TD*%
D17*
%TO.N,Net-(J1-Pin_4)*%
X109070000Y-60280000D02*
X115780000Y-66990000D01*
X160018000Y-64008000D02*
X160910000Y-64900000D01*
X115780000Y-66990000D02*
X149860000Y-66990000D01*
X149860000Y-66990000D02*
X152842000Y-64008000D01*
X152842000Y-64008000D02*
X160018000Y-64008000D01*
D18*
%TO.N,GND*%
X116690000Y-60810000D02*
X122174000Y-66294000D01*
D17*
X116690000Y-60280000D02*
X116690000Y-60810000D01*
D18*
%TO.N,+5V*%
X148500000Y-67900000D02*
X152482000Y-71882000D01*
D17*
X117348000Y-64516000D02*
X117354000Y-64516000D01*
D19*
X157928000Y-71882000D02*
X152482000Y-71882000D01*
D18*
X120732000Y-67900000D02*
X148500000Y-67900000D01*
D19*
X160910000Y-68900000D02*
X157928000Y-71882000D01*
D18*
X114150000Y-60280000D02*
X114150000Y-61318000D01*
X117348000Y-64516000D02*
X114150000Y-61318000D01*
D17*
%TO.N,Net-(U2-AN1)*%
X143002000Y-71882000D02*
X142572000Y-71882000D01*
X142572000Y-71882000D02*
X139954000Y-74500000D01*
%TO.N,Net-(U1-G41)*%
X144346000Y-72108000D02*
X144346000Y-71046000D01*
X142500000Y-69200000D02*
X121740000Y-69200000D01*
X121740000Y-69200000D02*
X115420000Y-75520000D01*
X144346000Y-71046000D02*
X142500000Y-69200000D01*
X141954000Y-74500000D02*
X144346000Y-72108000D01*
X115420000Y-76846642D02*
X115420000Y-75520000D01*
%TO.N,Net-(U2-AN2)*%
X132842000Y-71882000D02*
X135636000Y-74676000D01*
X135636000Y-74676000D02*
X135858000Y-74676000D01*
%TO.N,Net-(U1-G46)*%
X120500000Y-76900000D02*
X120500000Y-75520000D01*
X131730000Y-74670000D02*
X131736000Y-74676000D01*
X131730000Y-74670000D02*
X121350000Y-74670000D01*
X131736000Y-74676000D02*
X133636000Y-74676000D01*
X121350000Y-74670000D02*
X120500000Y-75520000D01*
%TO.N,Net-(U2-AN3)*%
X148190000Y-61210000D02*
X148200000Y-61200000D01*
X148190000Y-64090000D02*
X148190000Y-61210000D01*
X148200000Y-64080000D02*
X148190000Y-64090000D01*
%TO.N,Net-(U1-G7)*%
X121770000Y-58953358D02*
X121770000Y-60280000D01*
X146200000Y-61200000D02*
X144272000Y-61200000D01*
%TO.N,Net-(U1-G1)*%
X130324000Y-61214000D02*
X129390000Y-60280000D01*
X133858000Y-61214000D02*
X130324000Y-61214000D01*
%TO.N,Net-(U2-AN4)*%
X135858000Y-61246000D02*
X132842000Y-64262000D01*
X135858000Y-61214000D02*
X135858000Y-61246000D01*
X132900000Y-64040000D02*
X132950000Y-64090000D01*
%TO.N,Net-(U1-G2)*%
X139900000Y-61300000D02*
X139986000Y-61214000D01*
X128120000Y-58953358D02*
X128120000Y-60280000D01*
X138176000Y-61300000D02*
X139900000Y-61300000D01*
%TO.N,Net-(U2-AN5)*%
X136790000Y-62790000D02*
X135490000Y-64090000D01*
X141986000Y-61214000D02*
X140410000Y-62790000D01*
X140410000Y-62790000D02*
X136790000Y-62790000D01*
%TO.N,Net-(U1-G40)*%
X146304000Y-72438314D02*
X146304000Y-74500000D01*
X119600000Y-68800000D02*
X142665686Y-68800000D01*
X142665686Y-68800000D02*
X146304000Y-72438314D01*
X112880000Y-75520000D02*
X119600000Y-68800000D01*
%TO.N,Net-(U2-ANDE)*%
X148190000Y-73790000D02*
X148900000Y-74500000D01*
X148304000Y-72104000D02*
X148082000Y-71882000D01*
X148304000Y-74500000D02*
X148304000Y-72104000D01*
%TO.N,Net-(U1-G6)*%
X143150000Y-66590000D02*
X129350000Y-66590000D01*
X145650000Y-64090000D02*
X143150000Y-66590000D01*
X129350000Y-66590000D02*
X123040000Y-60280000D01*
%TO.N,Net-(U1-G44)*%
X140570000Y-71710000D02*
X138460000Y-69600000D01*
X138460000Y-69600000D02*
X122610000Y-69600000D01*
X122610000Y-69600000D02*
X116690000Y-75520000D01*
%TO.N,Net-(U1-G3)*%
X138030000Y-64090000D02*
X136730000Y-65390000D01*
X136730000Y-65390000D02*
X131960000Y-65390000D01*
X131960000Y-65390000D02*
X126850000Y-60280000D01*
%TO.N,Net-(U1-G4)*%
X138870000Y-65790000D02*
X131090000Y-65790000D01*
X131090000Y-65790000D02*
X125580000Y-60280000D01*
X140570000Y-64090000D02*
X138870000Y-65790000D01*
%TO.N,Net-(U1-G42)*%
X138030000Y-71710000D02*
X136330000Y-70010000D01*
X136330000Y-70010000D02*
X123470000Y-70010000D01*
X123470000Y-70010000D02*
X117960000Y-75520000D01*
%TO.N,Net-(U1-G5)*%
X143110000Y-64090000D02*
X141010000Y-66190000D01*
X130220000Y-66190000D02*
X124310000Y-60280000D01*
X141010000Y-66190000D02*
X130220000Y-66190000D01*
%TO.N,Net-(U1-G43)*%
X134190000Y-70410000D02*
X124340000Y-70410000D01*
X124340000Y-70410000D02*
X119230000Y-75520000D01*
X135490000Y-71710000D02*
X134190000Y-70410000D01*
%TD*%
M02*
